<svg xmlns="http://www.w3.org/2000/svg" xmlns:xlink="http://www.w3.org/1999/xlink" viewBox="0 0 130.87 130.87"><defs><style>.cls-1{fill:#ffd369;}.cls-2{isolation:isolate;}.cls-3{fill:#8dd3ba;}.cls-4,.cls-7{fill:#d1e7e0;}.cls-11,.cls-12,.cls-4{mix-blend-mode:multiply;}.cls-12,.cls-4{opacity:0.5;}.cls-5{clip-path:url(#clip-path);}.cls-6{fill:#fff;}.cls-8{fill:#940a37;}.cls-9{fill:#e26241;}.cls-10,.cls-12{fill:#ffaa9b;}</style><clipPath id="clip-path"><path class="cls-1" d="M66.69,52.1c-.11-12.3-9.42-14-9.42-14-6.17-1-5.63-7.42-5.63-7.42l-.75-6.42c-4.17-1.18-9.61,1.37-9.61,1.37l.44,6.07c-.07,5.18-5,7.4-5,7.4-9.18,4.22-8.14,14.22-8.14,14.22l1.7,46.41C48.92,108.3,68,96.81,68,96.81Zm-5,5s-3.51.86-6.22-5.91c0,0-3.58-8.15-.54-9.46a2.73,2.73,0,0,1,3.62,2.08s3.33.92,2.94,4.18a3.51,3.51,0,0,1,1,4.69S63.7,55.63,61.72,57.15Z"/></clipPath></defs><g class="cls-2"><g id="Layer_2" data-name="Layer 2"><g id="OBJECTS"><path class="cls-3" d="M0,65.44a65.44,65.44,0,1,1,65.43,65.43A65.44,65.44,0,0,1,0,65.44Z"/><path class="cls-4" d="M19.18,102.45c0-6.63,21.39-12,47.77-12s47.76,5.38,47.76,12-21.38,12-47.76,12S19.18,109.08,19.18,102.45Z"/><path class="cls-1" d="M66.69,52.1c-.11-12.3-9.42-14-9.42-14-6.17-1-5.63-7.42-5.63-7.42l-.75-6.42c-4.17-1.18-9.61,1.37-9.61,1.37l.44,6.07c-.07,5.18-5,7.4-5,7.4-9.18,4.22-8.14,14.22-8.14,14.22l1.7,46.41C48.92,108.3,68,96.81,68,96.81Zm-5,5s-3.51.86-6.22-5.91c0,0-3.58-8.15-.54-9.46a2.73,2.73,0,0,1,3.62,2.08s3.33.92,2.94,4.18a3.51,3.51,0,0,1,1,4.69S63.7,55.63,61.72,57.15Z"/><g class="cls-5"><path class="cls-6" d="M27.06,64.28s23.61,6.52,41.82-2.66l-.36,21.65s-19.3,10.67-40.31,3.65Z"/><path class="cls-7" d="M43.68,70.32s.61,5.26-2.49,6.56c0,0,2.84,1.19,3.06,6,0,0,.16-5.24,2.32-6.2C46.57,76.67,44.06,76.2,43.68,70.32Z"/><path class="cls-7" d="M37.27,74.65s.62,5.25-2.48,6.56c0,0,2.84,1.19,3.06,6,0,0,.16-5.24,2.32-6.2C40.17,81,37.66,80.53,37.27,74.65Z"/><path class="cls-7" d="M54.31,77.33s.4,3.46-1.64,4.31c0,0,1.87.78,2,3.94,0,0,.1-3.45,1.52-4.08C56.21,81.5,54.56,81.2,54.31,77.33Z"/></g><rect class="cls-8" x="84.85" y="41.37" width="3.96" height="10.26" rx="1.71"/><path class="cls-6" d="M72.41,97.17s-2-32.27,1.85-41.2c0,0,2.08-6.89,12.47-7.09,0,0,11.6-.87,12.76,7.28,0,0,3.64,25.67,3,38.68C102.45,94.84,94.78,102.12,72.41,97.17Z"/><path class="cls-9" d="M84.52,66a1.73,1.73,0,0,0-1.71,1.73v4h-4a1.73,1.73,0,0,0-1.72,1.72v2.86a1.72,1.72,0,0,0,1.72,1.71h4v4a1.72,1.72,0,0,0,1.71,1.71h2.86A1.72,1.72,0,0,0,89.1,81.9v-4h4a1.72,1.72,0,0,0,1.71-1.71V73.36a1.72,1.72,0,0,0-1.71-1.72h-4v-4A1.73,1.73,0,0,0,87.38,66Z"/><path class="cls-6" d="M77.06,44.25l16-1.2s.29-8-5.13-7.73c0,0-4.27-.19-6,3.17S79.18,41,76.08,41.21A6.67,6.67,0,0,0,77.06,44.25Z"/><path class="cls-7" d="M73.77,44.7s-3.42,3.48-1.84,7.09a1.49,1.49,0,0,0,2,.31s1.81-1.74.76-5Z"/><path class="cls-9" d="M41.27,31.21l-.74-6.14s7.44-3.25,11.17-1l.29,5.8A16.11,16.11,0,0,1,41.27,31.21Z"/><polygon class="cls-1" points="68.57 101.3 58.56 108.07 58.58 114.81 84.66 115.02 92 108.62 91.97 101.85 68.57 101.3"/><polygon class="cls-10" points="58.41 108.07 68.41 101.3 91.85 101.85 84.5 108.25 58.41 108.07"/><g class="cls-11"><path class="cls-10" d="M84.58,114.29a.25.25,0,0,1-.25-.24c0-1.8,0-4.84,0-4.84h.48s0,3,0,4.83a.26.26,0,0,1-.24.25Z"/></g><path class="cls-12" d="M78.34,112.65a1.43,1.43,0,1,1,1.43,1.43A1.42,1.42,0,0,1,78.34,112.65Z"/><path class="cls-12" d="M74.16,109.88a.8.8,0,1,1,.8.8A.8.8,0,0,1,74.16,109.88Z"/><path class="cls-12" d="M65.86,111.06a1.33,1.33,0,1,1,1.33,1.33A1.33,1.33,0,0,1,65.86,111.06Z"/><path class="cls-12" d="M70.89,113.86a.6.6,0,0,1,.6-.6.6.6,0,0,1,0,1.2A.6.6,0,0,1,70.89,113.86Z"/><path class="cls-12" d="M60.22,112.38a1,1,0,1,1,1,1A1,1,0,0,1,60.22,112.38Z"/><path class="cls-12" d="M89.32,106.42c-.22-.28-.08-.76.33-1.08a.83.83,0,0,1,1.13-.06c.22.28.07.77-.33,1.08S89.54,106.71,89.32,106.42Z"/><path class="cls-12" d="M86.53,111.18c-.35-.44-.11-1.2.51-1.69a1.3,1.3,0,0,1,1.76-.1c.35.44.11,1.2-.51,1.69S86.87,111.62,86.53,111.18Z"/><g class="cls-11"><path class="cls-10" d="M66.61,107.29a.24.24,0,0,1-.21-.36,12.91,12.91,0,0,1,1.82-2.19,16.16,16.16,0,0,0,1.35-1.51.24.24,0,0,1,.34,0,.25.25,0,0,1,0,.34,15.94,15.94,0,0,1-1.39,1.56,11.78,11.78,0,0,0-1.74,2.1A.26.26,0,0,1,66.61,107.29Z"/></g><g class="cls-11"><path class="cls-10" d="M70.81,105.7a.23.23,0,0,1-.16-.06.24.24,0,0,1,0-.34c.65-.73,1.16-1.28,1.66-1.78a.23.23,0,0,1,.34,0,.25.25,0,0,1,0,.34c-.49.49-1,1-1.64,1.76A.27.27,0,0,1,70.81,105.7Z"/></g><g class="cls-11"><path class="cls-10" d="M72.18,105.52a.23.23,0,0,1-.17-.07.25.25,0,0,1,0-.34l.18-.17a9.91,9.91,0,0,1,.81-.77.24.24,0,0,1,.33,0,.23.23,0,0,1,0,.34c-.27.23-.52.49-.77.74l-.18.17A.21.21,0,0,1,72.18,105.52Z"/></g><g class="cls-11"><path class="cls-10" d="M80.91,104.32a.24.24,0,0,1-.15-.43l.55-.43a13.52,13.52,0,0,1,1.57-1.16.24.24,0,1,1,.24.41,14,14,0,0,0-1.51,1.12l-.55.44A.27.27,0,0,1,80.91,104.32Z"/></g><g class="cls-11"><path class="cls-10" d="M80,107.36a.25.25,0,0,1-.17-.42,28.57,28.57,0,0,1,2.69-2.44.24.24,0,0,1,.34,0,.23.23,0,0,1,0,.33,27.25,27.25,0,0,0-2.63,2.4A.25.25,0,0,1,80,107.36Z"/></g><g class="cls-11"><path class="cls-10" d="M83,106.25a.23.23,0,0,1-.17-.07.25.25,0,0,1,0-.34l.1-.1c.19-.19.35-.35.58-.55a.24.24,0,1,1,.32.35c-.22.2-.38.36-.56.54l-.1.1A.23.23,0,0,1,83,106.25Z"/></g><g class="cls-11"><path class="cls-10" d="M86.6,103.81a.27.27,0,0,1-.18-.08.26.26,0,0,1,0-.34l.43-.4a.23.23,0,0,1,.34,0,.25.25,0,0,1,0,.34l-.45.42A.23.23,0,0,1,86.6,103.81Z"/></g></g></g></g></svg>