<svg xmlns="http://www.w3.org/2000/svg" xmlns:xlink="http://www.w3.org/1999/xlink" viewBox="0 0 130.87 130.87"><defs><style>.cls-1,.cls-8{fill:#940a37;}.cls-10,.cls-2{fill:#ffd369;}.cls-12,.cls-3{fill:#e26241;}.cls-4{isolation:isolate;}.cls-5{fill:#fff;}.cls-6{fill:#d1e7e0;opacity:0.5;}.cls-10,.cls-12,.cls-6,.cls-8{mix-blend-mode:multiply;}.cls-7{clip-path:url(#clip-path);}.cls-10,.cls-12,.cls-8{opacity:0.3;}.cls-9{clip-path:url(#clip-path-2);}.cls-11{clip-path:url(#clip-path-3);}.cls-13{clip-path:url(#clip-path-4);}.cls-14{clip-path:url(#clip-path-5);}</style><clipPath id="clip-path"><path class="cls-1" d="M52.85,28.64c-3.26,0-5.91.36-5.91.81,0,0,.05.08.09.12h-.1V65h0c0,.45,2.65.81,5.91.81s5.9-.36,5.9-.81c0,0,0,0,0-.07l0-35.41s0,0,0-.05C58.75,29,56.11,28.64,52.85,28.64Z"/></clipPath><clipPath id="clip-path-2"><path class="cls-2" d="M52.49,14.1c-10.35,0-18.75,1.13-19.07,2.54h-.07L33.27,30h.13s0,0,0,0c0,1.45,8.55,2.62,19.1,2.62,10.33,0,18.73-1.13,19.07-2.53h0V30l0-13.24h0C71.53,15.27,63,14.1,52.49,14.1Z"/></clipPath><clipPath id="clip-path-3"><path class="cls-3" d="M78.47,80.23c-2-9.56,3-18.76,11.29-20.55s16.67,4.53,18.72,14.1-3,18.76-11.29,20.55S80.52,89.8,78.47,80.23Z"/></clipPath><clipPath id="clip-path-4"><path class="cls-1" d="M92,70.17a5.1,5.1,0,0,0-1.22.12,4.86,4.86,0,0,0-.76.26v0L29.56,90.26l-.69.22h0c-2.85,1-4.53,4.38-3.78,7.89.81,3.78,4.13,6.27,7.4,5.56.11,0,.21-.07.32-.1L93.56,84l.11,0c3.28-.7,5.28-4.34,4.47-8.12C97.43,72.55,94.8,70.23,92,70.17Z"/></clipPath><clipPath id="clip-path-5"><path class="cls-3" d="M16.66,100.38c-2.05-9.56,3-18.76,11.29-20.54s16.67,4.52,18.72,14.09-3,18.76-11.28,20.54S18.71,110,16.66,100.38Z"/></clipPath></defs><g class="cls-4"><g id="Layer_2" data-name="Layer 2"><g id="OBJECTS"><path class="cls-5" d="M0,65.43a65.44,65.44,0,1,1,65.43,65.44A65.44,65.44,0,0,1,0,65.43Z"/><path class="cls-6" d="M8.83,85.73c0-8,25.75-14.45,57.52-14.45s57.51,6.47,57.51,14.45-25.75,14.45-57.51,14.45S8.83,93.71,8.83,85.73Z"/><path class="cls-3" d="M52.49,62.53c-10.35,0-18.75,1.14-19.07,2.55h-.07l-.08,13.3h.13s0,0,0,0c0,1.45,8.55,2.63,19.1,2.63,10.33,0,18.73-1.14,19.07-2.54h0v-.07s0,0,0,0a0,0,0,0,0,0,0l0-13.24h0C71.53,63.7,63,62.53,52.49,62.53Z"/><path class="cls-2" d="M33.34,65.15c0-1.45,8.55-2.62,19.1-2.62s19.1,1.17,19.1,2.62S63,67.78,52.44,67.78,33.34,66.6,33.34,65.15Z"/><path class="cls-1" d="M52.85,28.64c-3.26,0-5.91.36-5.91.81,0,0,.05.08.09.12h-.1V65h0c0,.45,2.65.81,5.91.81s5.9-.36,5.9-.81c0,0,0,0,0-.07l0-35.41s0,0,0-.05C58.75,29,56.11,28.64,52.85,28.64Z"/><g class="cls-7"><path class="cls-8" d="M42.18,54.21c-.06.12-.26-.23-.18-.33a28.37,28.37,0,0,1,2.71-3.19,27.23,27.23,0,0,1,4.58-3.62,27.78,27.78,0,0,1,10-3.8c.91-.17,3-.06,3.49-1.15.33-.69,0-2,0-2.71,0-2.57,0-5.1-.06-7.66-.06-1.95.11-4.38-1.68-5.67s-4-1.21-6.16-1.33-6.08-.47-8,1.09c-1.41,1.16-1.59,3.85-2.05,5.48-.57,2-.94,4.13-1.33,6.22a49.25,49.25,0,0,0-1,7.84c0,1.83,0,3.66-.06,5.49C42.46,52,42.73,53.18,42.18,54.21Z"/></g><path class="cls-2" d="M52.49,14.1c-10.35,0-18.75,1.13-19.07,2.54h-.07L33.27,30h.13s0,0,0,0c0,1.45,8.55,2.62,19.1,2.62,10.33,0,18.73-1.13,19.07-2.53h0V30l0-13.24h0C71.53,15.27,63,14.1,52.49,14.1Z"/><g class="cls-9"><path class="cls-10" d="M36,35.12a46,46,0,0,0,7.12-1.2A75.61,75.61,0,0,0,52.31,30c4.83-2.27,9.68-4.61,14.29-7.3a74.4,74.4,0,0,0,8-5.49l.84-.66c.36-.29.72-.58,1.08-.85.2-.14.65-.53.91-.48s.24,1.16.24,1.27c.11,1.36,0,2.79.06,4.16a47.3,47.3,0,0,1-.06,5.19c-.17,2.69-.55,4.89-3,6.45-3.21,2-7.65,2.92-11.33,3.68-2.65.55-5.28,1.13-8,1.45a82.2,82.2,0,0,1-9.41.42c-1.5,0-3,.08-4.53-.06-2.35-.22-4.57-1.26-6.87-1.75"/></g><path class="cls-3" d="M33.34,16.72c0-1.45,8.55-2.62,19.1-2.62s19.1,1.17,19.1,2.62S63,19.35,52.44,19.35,33.34,18.17,33.34,16.72Z"/><path class="cls-2" d="M100.29,56.68a13.05,13.05,0,0,0-3.1.31c-.5.1-1.47.4-1.47.4l-7.8,2.84.79,2.47a18.81,18.81,0,0,0-2.82,14.83c1.48,6.91,6.28,12.1,11.94,13.79l.83,2.6,7.12-2.62c.37-.11.73-.25,1.09-.39,6.92-2.83,10.89-11.17,9-19.83C114.11,62.71,107.47,56.83,100.29,56.68Z"/><path class="cls-3" d="M78.47,80.23c-2-9.56,3-18.76,11.29-20.55s16.67,4.53,18.72,14.1-3,18.76-11.29,20.55S80.52,89.8,78.47,80.23Z"/><g class="cls-11"><path class="cls-12" d="M79.83,86.14c3.09-1.12,6.09-2.34,9.06-3.7,3.29-1.52,6.57-3.08,9.69-4.92,3.87-2.28,7.5-4.93,11.35-7.26a29.84,29.84,0,0,1,7.47-3.46c.5-.14,1-.25,1.52-.35s.91-.3,1.31-.13a3.28,3.28,0,0,1,2.08,3.18,17,17,0,0,1-.83,3.87A54.06,54.06,0,0,1,120,78.7c-3.25,8.65-9.89,16-18.75,19a20.37,20.37,0,0,1-4.43,1.1,17.53,17.53,0,0,1-6.85-.83,22.44,22.44,0,0,1-2.76-1.52A5.89,5.89,0,0,1,84.4,94a29.25,29.25,0,0,1-2.29-3.74c-.42-1-.66-2-1.1-2.9C80.76,86.81,79.2,86.36,79.83,86.14Z"/></g><path class="cls-1" d="M92,70.17a5.1,5.1,0,0,0-1.22.12,4.86,4.86,0,0,0-.76.26v0L29.56,90.26l-.69.22h0c-2.85,1-4.53,4.38-3.78,7.89.81,3.78,4.13,6.27,7.4,5.56.11,0,.21-.07.32-.1L93.56,84l.11,0c3.28-.7,5.28-4.34,4.47-8.12C97.43,72.55,94.8,70.23,92,70.17Z"/><g class="cls-13"><path class="cls-8" d="M43.93,83.89c3.29,2,6.68,1.74,10.3,2.21,1.5.2,3.06.53,4.57.62a72.81,72.81,0,0,0,9.34-.27c4-.27,8-.34,12-.9,3.44-.48,6.9-1.39,10.37-1.59.88,0,2.41-.4,3.19.14C95,85,93,86.67,92.42,87.35s-1.31,1.52-2,2.14a17.7,17.7,0,0,1-6.23,3.18c-3.49,1.19-7.06,2.17-10.58,3.26-5.93,1.82-11.8,3.81-17.71,5.67-3.23,1-6.89,2.69-10.38,2.21-3-.41-4.84-1.14-6.16-4.08-1.43-3.18-1.63-8.91.07-12.31a6,6,0,0,1,4.29-3.12c.5-.1,1.4-.71,1.66-.2"/></g><path class="cls-2" d="M38.48,76.83a13.05,13.05,0,0,0-3.1.31c-.5.1-1.47.4-1.47.4l-7.8,2.84.79,2.47a18.81,18.81,0,0,0-2.82,14.83c1.49,6.91,6.28,12.1,11.94,13.79l.83,2.6L44,111.45c.37-.11.73-.25,1.09-.39,6.92-2.83,10.89-11.17,9-19.83C52.3,82.86,45.66,77,38.48,76.83Z"/><path class="cls-3" d="M16.66,100.38c-2.05-9.56,3-18.76,11.29-20.54s16.67,4.52,18.72,14.09-3,18.76-11.28,20.54S18.71,110,16.66,100.38Z"/><g class="cls-14"><path class="cls-12" d="M23.07,114.88c0-.21-.28-.5-.11-.62s.65,0,1,0a2.34,2.34,0,0,0,1.25-.21,27.81,27.81,0,0,0,3-1.66A27.55,27.55,0,0,0,32,108.86,33.41,33.41,0,0,0,36.32,104c1.12-1.69,2.49-3.21,3.59-4.91C42.39,95.19,44.34,90.87,48,88a17.77,17.77,0,0,1,4-2.42,1.86,1.86,0,0,1,1-.14,5,5,0,0,1,1.52,1.18,18.13,18.13,0,0,1,1.25,2.28C57.1,91.29,57,93,57.07,95.58A31.71,31.71,0,0,1,57,99.94a22.51,22.51,0,0,1-1.94,6.16c-1.11,2.22-3,3.94-4.7,5.74-3.17,3.44-8,6.51-12.8,7.12-3.71.48-7.56-.77-11-2-.32-.12-.64-.26-1-.35s-.83-.18-1.24-.28-1.15-.12-1.25-.55A6.71,6.71,0,0,1,23.07,114.88Z"/></g></g></g></g></svg>