<svg xmlns="http://www.w3.org/2000/svg" viewBox="0 0 128.17 129.88"><defs><style>.cls-1{fill:#ffd369;}.cls-2{fill:#8dd3ba;}.cls-3{fill:#e26241;}.cls-4{fill:#fff;}.cls-5{fill:#940a37;}.cls-6{fill:#5b0909;}.cls-7{fill:#ffaa9b;}</style></defs><g id="Layer_2" data-name="Layer 2"><g id="OBJECTS"><path class="cls-1" d="M0,64.94C0,29.08,28.69,0,64.08,0s64.09,29.08,64.09,64.94-28.69,64.94-64.09,64.94S0,100.81,0,64.94Z"/><path class="cls-2" d="M34.18,87.4s-6.72-7.68-10.79-1.28c0,0-3.22,5.28.57,8.12,0,0-6.15-1.76-7.14,1.92a3.24,3.24,0,0,0,2,3.69s-3.25,3.6.38,5.77a9,9,0,0,0,9.72-2.1s3.25,3.23,5.83,1.56C34.78,105.08,39.88,95.31,34.18,87.4Z"/><ellipse class="cls-3" cx="25.74" cy="89.08" rx="1.23" ry="1.25"/><path class="cls-3" d="M20.14,102.72a1.09,1.09,0,1,1,1.08,1.1A1.09,1.09,0,0,1,20.14,102.72Z"/><path class="cls-3" d="M22.93,97a.75.75,0,1,1,.75.77A.75.75,0,0,1,22.93,97Z"/><path class="cls-4" d="M63.35,23.8,27.14,55.44l.36,1a1.67,1.67,0,0,0-.68,1.33V104a1.69,1.69,0,0,0,1.68,1.7H98.57a1.69,1.69,0,0,0,1.67-1.7V57.79a1.66,1.66,0,0,0-1.33-1.63l.57-1.83Z"/><path class="cls-2" d="M41.33,57.22h9.83a1.69,1.69,0,0,1,1.68,1.7V68.6a1.69,1.69,0,0,1-1.68,1.7H41.33a1.69,1.69,0,0,1-1.68-1.7V58.92A1.69,1.69,0,0,1,41.33,57.22Z"/><path class="cls-2" d="M75,57.74h9.84a1.69,1.69,0,0,1,1.67,1.7v9.68a1.68,1.68,0,0,1-1.67,1.69H75a1.69,1.69,0,0,1-1.68-1.69V59.44A1.69,1.69,0,0,1,75,57.74Z"/><path class="cls-5" d="M56.67,81.58H71a1.7,1.7,0,0,1,1.68,1.71v20.59a1.69,1.69,0,0,1-1.68,1.7H56.67a1.69,1.69,0,0,1-1.68-1.7V83.29A1.7,1.7,0,0,1,56.67,81.58Z"/><path class="cls-6" d="M54.11,105.58H73.54a1.69,1.69,0,0,1,1.68,1.7v3.2a1.7,1.7,0,0,1-1.68,1.71H54.11a1.7,1.7,0,0,1-1.68-1.71v-3.2A1.69,1.69,0,0,1,54.11,105.58Z"/><path class="cls-7" d="M76.56,83.8h.19a1.69,1.69,0,0,1,1.68,1.7v.19a1.69,1.69,0,0,1-1.68,1.7h-.19a1.69,1.69,0,0,1-1.68-1.7V85.5A1.69,1.69,0,0,1,76.56,83.8Z"/><path class="cls-3" d="M33.15,105.62s-1.55-.07-2.15-5.17c0,0-.53-2.14,1.45-2.07l4.67,0s2-.11,1.5,2.15c0,0-.76,5-1.73,5.22Z"/><path class="cls-2" d="M34.75,99.1S31,97.81,31,94.23c0-.06.25-1.57,2.47,0,0,0-1-5.85,1.43-6.12,0,0,2.08-.15,1.34,5.32,0,0,1.19-2.17,2.84-1.2,0,0,2.59,3.28-2,6.5C37.07,98.75,37,99,34.75,99.1Z"/><path class="cls-2" d="M96.67,87.64s1.7-8.54,7.19-7.68c0,0,3.89,2.05.69,8.27,0,0,4-1.54,4.65,1.68,0,0,.3,4.45-2.76,4.47,0,0,6.77,1.66,2,9.12,0,0-4.92,6.49-10.92.9C97.53,104.4,93.2,98,96.67,87.64Z"/><path class="cls-2" d="M99.37,106.11s-4.84,3.68-6.92-2.46c0,0-.15-3.47,4-3.1,0,0-.69-4,2.78-3.65,0,0,5,1.18,3.13,4.95A4.29,4.29,0,0,1,99.37,106.11Z"/><path class="cls-7" d="M62.94,53.9s-7-1.64-7-7.9c0,0,.34-4.58,3.58-4.51a3.93,3.93,0,0,1,3.58,4.19s.74-4.25,4-4.28c0,0,3.88.37,3.38,5.24C70.5,46.64,70.37,51.23,62.94,53.9Z"/><path class="cls-5" d="M63.66,20.84l-.06,0a1.2,1.2,0,0,0-.38.15l-.08,0a1.09,1.09,0,0,0-.15.08L19.52,59.94a1.79,1.79,0,0,0-.27,2.24l.82,1.3a1.22,1.22,0,0,0,1.9.31L63.83,26.45l41.85,37.34a1.22,1.22,0,0,0,1.9-.31l.82-1.3a1.79,1.79,0,0,0-.27-2.24L64.66,21.14a1.09,1.09,0,0,0-.15-.08l-.08,0a1.2,1.2,0,0,0-.38-.15.79.79,0,0,0-.22,0A1,1,0,0,0,63.66,20.84Z"/><path class="cls-3" d="M104.93,101.35a1.23,1.23,0,0,1-.51,1.67,1.24,1.24,0,0,1-1.16-2.2A1.24,1.24,0,0,1,104.93,101.35Z"/><path class="cls-3" d="M102.44,87.24a1.08,1.08,0,1,1-1.47-.47A1.09,1.09,0,0,1,102.44,87.24Z"/><path class="cls-3" d="M102.63,93.57a.76.76,0,1,1-1-.32A.77.77,0,0,1,102.63,93.57Z"/></g></g></svg>