<svg xmlns="http://www.w3.org/2000/svg" xmlns:xlink="http://www.w3.org/1999/xlink" viewBox="0 0 130.87 130.87"><defs><style>.cls-1,.cls-11{fill:#ffd369;}.cls-14,.cls-2{fill:#8dd3ba;}.cls-16,.cls-3{fill:#5b0909;}.cls-19,.cls-4{fill:#e26241;}.cls-21,.cls-5{fill:#ffaa9b;}.cls-6{isolation:isolate;}.cls-12,.cls-7{fill:#fff;}.cls-8{fill:#d1e7e0;}.cls-11,.cls-14,.cls-16,.cls-17,.cls-19,.cls-21,.cls-8{mix-blend-mode:multiply;}.cls-11,.cls-17,.cls-21,.cls-8{opacity:0.5;}.cls-9{clip-path:url(#clip-path);}.cls-10,.cls-12{opacity:0.7;}.cls-13{clip-path:url(#clip-path-2);}.cls-14,.cls-16,.cls-19{opacity:0.3;}.cls-15{clip-path:url(#clip-path-3);}.cls-18{clip-path:url(#clip-path-4);}.cls-20{clip-path:url(#clip-path-5);}.cls-22{fill:#940a37;}</style><clipPath id="clip-path"><path class="cls-1" d="M68.11,95.18S43.7,98.91,49,54.94c0,0,.93-20.31,19.84-22.36,0,0,21-3.73,21.25,35.21C90.1,67.79,91.77,93.69,68.11,95.18Z"/></clipPath><clipPath id="clip-path-2"><path class="cls-2" d="M62.23,36.92s-7.37-11.24-11.83-13c0,0,8.92.89,12.54,5.77,0,0-3-9.94-3.15-16.65,0,0,4.16,8.44,7.08,13.2,0,0,2.91-14.51,7.31-17.13,0,0-3.62,12.55-2.2,18,0,0,8-11.77,16.06-12.37,0,0-12.25,15.46-11.24,21.11C76.8,35.79,69.07,39.78,62.23,36.92Z"/></clipPath><clipPath id="clip-path-3"><path class="cls-3" d="M80.06,106.49S63.94,95.62,80.58,82c0,0,10.35-10.06,13.65-16.25,0,0,2.6-5.86,7-4.27,0,0,10.14,5.4,2.32,33.33C103.5,94.85,97.05,110.4,80.06,106.49Z"/></clipPath><clipPath id="clip-path-4"><path class="cls-4" d="M39.23,97.92s-17.49-.73-17.4-23.5c0,0,.55-10.65,7.47-10.75a10.41,10.41,0,0,1,8.83,6.93s6.47-11.57,16.49-7c0,0,8.11,5,3.1,21.77C57.72,85.35,51.74,98.46,39.23,97.92Z"/></clipPath><clipPath id="clip-path-5"><path class="cls-5" d="M30.33,99.56s-1.25-7.66,9.61-5.86l37.54,6.84s5.94.58,5.27,2.14c0,0,1.15,1.19-14,2.21,0,0-25.51,1.53-29.2,1.5C39.53,106.39,30.23,107.87,30.33,99.56Z"/></clipPath></defs><g class="cls-6"><g id="Layer_2" data-name="Layer 2"><g id="OBJECTS"><path class="cls-7" d="M0,65.43a65.44,65.44,0,1,1,65.43,65.44A65.43,65.43,0,0,1,0,65.43Z"/><path class="cls-8" d="M19.62,102.46c0-6.25,20.17-11.32,45-11.32s45,5.07,45,11.32-20.16,11.32-45,11.32S19.62,108.71,19.62,102.46Z"/><path class="cls-1" d="M68.11,95.18S43.7,98.91,49,54.94c0,0,.93-20.31,19.84-22.36,0,0,21-3.73,21.25,35.21C90.1,67.79,91.77,93.69,68.11,95.18Z"/><g class="cls-9"><g class="cls-10"><path class="cls-3" d="M78,49.17a.5.5,0,0,1-.39-.2l-4.32-6-3.88,5.6a.54.54,0,0,1-.41.21.51.51,0,0,1-.4-.23l-3.25-5.1-4.65,4.38a.49.49,0,0,1-.43.13.48.48,0,0,1-.34-.28l-2.46-5.53-7,5.62a.48.48,0,0,1-.6-.75l7.47-6a.49.49,0,0,1,.42-.09.48.48,0,0,1,.32.27l2.44,5.48,4.58-4.32a.52.52,0,0,1,.39-.13.51.51,0,0,1,.35.22l3.18,5,3.86-5.56a.47.47,0,0,1,.39-.21.5.5,0,0,1,.39.2l4.28,6,3.12-5.53a.47.47,0,0,1,.66-.18l7.31,4.29a.48.48,0,0,1,.17.66.48.48,0,0,1-.66.17l-6.88-4-3.25,5.76a.47.47,0,0,1-.39.25Z"/></g><g class="cls-10"><path class="cls-3" d="M84.82,63.05a.48.48,0,0,1-.36-.16l-5.07-5.65-3,5.16a.49.49,0,0,1-.79.06l-3.88-4.7L67.17,62.7a.49.49,0,0,1-.75-.05L62.6,57.33,58,61.9a.48.48,0,0,1-.65,0L52,57.25l-5.31,4.57a.48.48,0,1,1-.63-.73l5.63-4.84a.5.5,0,0,1,.63,0l5.37,4.66,4.66-4.66a.49.49,0,0,1,.38-.14.46.46,0,0,1,.35.2l3.81,5.3,4.5-4.91a.47.47,0,0,1,.37-.16.48.48,0,0,1,.35.18l3.8,4.6,3-5.13a.46.46,0,0,1,.36-.23.47.47,0,0,1,.41.15l5.13,5.72,5-6a.48.48,0,0,1,.74.61l-5.33,6.4a.49.49,0,0,1-.36.17Z"/></g><g class="cls-10"><path class="cls-3" d="M56.94,76.81a.48.48,0,0,1-.36-.16L51.51,71l-5,4.72a.49.49,0,0,1-.68,0,.47.47,0,0,1,0-.68L51.21,70a.49.49,0,0,1,.35-.13.46.46,0,0,1,.34.16L57,75.66l5.14-4.38a.47.47,0,0,1,.6,0l4.83,3.68,6.1-5a.47.47,0,0,1,.63,0l4.1,3.81,5.11-5.68a.44.44,0,0,1,.34-.16.52.52,0,0,1,.36.14l4.43,4.58,3-3.53a.48.48,0,1,1,.73.61l-3.28,4a.51.51,0,0,1-.35.17.43.43,0,0,1-.36-.15l-4.45-4.59-5.1,5.67a.46.46,0,0,1-.33.16.48.48,0,0,1-.35-.13L74,70.93l-6.07,5a.48.48,0,0,1-.6,0l-4.82-3.68L57.25,76.7A.49.49,0,0,1,56.94,76.81Z"/></g><g class="cls-10"><path class="cls-3" d="M50.66,87.24a.5.5,0,0,1-.26-.08.48.48,0,0,1-.15-.66l3.29-5.28a.49.49,0,0,1,.33-.22.46.46,0,0,1,.38.1l6,4.78,5.36-4.62a.5.5,0,0,1,.61,0l5,3.81,6.42-5a.48.48,0,0,1,.61,0l3.91,3.37,5.26-4.39a.49.49,0,0,1,.55,0l2.61,1.51a.48.48,0,1,1-.48.84L87.71,80,82.4,84.45a.47.47,0,0,1-.62,0l-3.93-3.39-6.41,5a.48.48,0,0,1-.58,0l-4.94-3.8-5.36,4.62a.48.48,0,0,1-.61,0l-5.87-4.69-3,4.82A.49.49,0,0,1,50.66,87.24Z"/></g><path class="cls-11" d="M83.88,33.22a116.56,116.56,0,0,1-2,16.21,46.39,46.39,0,0,1-2.39,7.73c-1.29,3.14-3.47,5.69-5.35,8.47A58.4,58.4,0,0,1,63.49,77.42c-2.86,2.39-6.11,4.15-9.19,6.22a19.16,19.16,0,0,0-4.56,3.83c-2.37,3.21-.76,7.71,2.46,9.62,3,1.77,6.66,1.69,10,1.81,1.08,0,2.16.19,3.25.14,3.26-.14,6-1.35,8.9-2.6a31.94,31.94,0,0,0,7.81-4.34A34.19,34.19,0,0,0,92.64,76.55c2.19-7.46,2.2-15.44,2-23.15a28.66,28.66,0,0,0-.58-5.85A32.18,32.18,0,0,0,88.8,35.32c-.66-.9-1.93-2.46-3.11-2.68C85.28,32.57,83.92,32.77,83.88,33.22Z"/><path class="cls-12" d="M52.37,49.1c0-.89.41-1.62.92-1.62s.91.73.91,1.62-.41,1.63-.91,1.63S52.37,50,52.37,49.1Z"/><path class="cls-12" d="M55.34,52.06c0-.91.37-1.64.84-1.64s.84.73.84,1.64-.38,1.63-.84,1.63S55.34,53,55.34,52.06Z"/><path class="cls-12" d="M53,54.82c0-.65.28-1.19.63-1.19s.63.54.63,1.19S54,56,53.64,56,53,55.48,53,54.82Z"/><path class="cls-12" d="M69.53,63.37c0-1,.48-1.76,1.07-1.76s1.07.79,1.07,1.76-.48,1.76-1.07,1.76S69.53,64.34,69.53,63.37Z"/><path class="cls-12" d="M68.12,66.66c0-.69.29-1.25.64-1.25s.65.56.65,1.25-.29,1.26-.65,1.26S68.12,67.35,68.12,66.66Z"/><path class="cls-12" d="M79.56,50.25c0-1,.49-1.79,1.09-1.79s1.08.8,1.08,1.79S81.25,52,80.65,52,79.56,51.24,79.56,50.25Z"/><path class="cls-12" d="M82.71,52.5c0-.69.34-1.25.75-1.25s.75.56.75,1.25-.34,1.25-.75,1.25S82.71,53.19,82.71,52.5Z"/></g><path class="cls-2" d="M62.23,36.92s-7.37-11.24-11.83-13c0,0,8.92.89,12.54,5.77,0,0-3-9.94-3.15-16.65,0,0,4.16,8.44,7.08,13.2,0,0,2.91-14.51,7.31-17.13,0,0-3.62,12.55-2.2,18,0,0,8-11.77,16.06-12.37,0,0-12.25,15.46-11.24,21.11C76.8,35.79,69.07,39.78,62.23,36.92Z"/><g class="cls-13"><path class="cls-14" d="M74.21,38.07a20.93,20.93,0,0,1,1.5-7.32,29.43,29.43,0,0,1,6.92-10.69,32,32,0,0,1,3.62-3.36,28.43,28.43,0,0,1,4.42-2.76,1.14,1.14,0,0,1,.52-.17c.07,0,.09.14.06.2a7.29,7.29,0,0,1-.66.81c-.61.72-1.28,1.38-1.9,2.09C87.05,18.74,85.85,21,84.35,23a37.8,37.8,0,0,0-4.94,9.23c-.29.75-.54,1.52-.8,2.29a6.14,6.14,0,0,1-.86,2c-.48.55-.9.53-1.53.8a13.34,13.34,0,0,0-2.32,1.61"/><path class="cls-14" d="M76,7.59c-.14,0-.29-.07-.42,0-.46.16-.68.69-1,1.06a22.13,22.13,0,0,0-1.49,2.1A22.62,22.62,0,0,0,71,14.09a19.51,19.51,0,0,0-1.43,8.33c0,1.07.22,3.86,1.52,4.28.85.27.87-.82,1-1.29a17.1,17.1,0,0,0,.49-2.68,28.29,28.29,0,0,1,1.89-8.41c.42-1.08.93-2.11,1.35-3.19a10.26,10.26,0,0,0,1-2.76c0-.22,0-.81-.32-.86C76.32,7.49,76.14,7.59,76,7.59Z"/><path class="cls-14" d="M60.51,11.39c0-.08,0-.29,0-.23a2.31,2.31,0,0,0-.4,1.17,7.16,7.16,0,0,0-.12,3c.18.91.53,1.78.75,2.67a18.22,18.22,0,0,0,2.85,6.41,7.79,7.79,0,0,0,.69.83c.34.38,1.16,1.32,1.78,1.15s.48-1.41.46-1.78A17.33,17.33,0,0,0,65.94,22c-.38-1.64-1-3.15-1.49-4.74a24.56,24.56,0,0,0-1.27-3.45c-.54-1.09-.82-2-2-2.44"/><path class="cls-14" d="M49.22,23.41a14.88,14.88,0,0,0,4.38,2,14.37,14.37,0,0,1,3.95,2.46,12,12,0,0,1,4.61,7.5c.09.67.28,1.71-.56,2A1.67,1.67,0,0,1,60.32,37a18.3,18.3,0,0,1-2.44-2.46A71,71,0,0,1,51,25.74a19.68,19.68,0,0,0-1.5-1.91C49.42,23.7,49.09,23.3,49.22,23.41Z"/></g><path class="cls-3" d="M80.06,106.49S63.94,95.62,80.58,82c0,0,10.35-10.06,13.65-16.25,0,0,2.6-5.86,7-4.27,0,0,10.14,5.4,2.32,33.33C103.5,94.85,97.05,110.4,80.06,106.49Z"/><g class="cls-15"><path class="cls-16" d="M71.21,99c-.07.32-.17.78.09,1a4,4,0,0,0,1.76.37,11.31,11.31,0,0,0,5,0,39,39,0,0,0,12.65-5.63c6.88-4.43,10.24-11.33,15.61-17.18.85-.92,3-3.27,4.52-2.49,1.29.65,1.61,2.74,1.85,4a17.3,17.3,0,0,1,.27,6.65c-.26,1.51-.85,2.94-1.2,4.43-.69,2.92-1.06,6-2.4,8.77a31.58,31.58,0,0,1-4.24,5.91c-3.71,4.51-7.57,7.11-13.39,7.94-4.21.6-8,.22-11.73-2-.8-.49-1.45-1.21-2.21-1.76a13.89,13.89,0,0,1-2.68-2.21,16.71,16.71,0,0,1-3.23-6.28,9.92,9.92,0,0,0-.28-1.66C71.52,98.67,71.25,98.9,71.21,99Z"/></g><path class="cls-2" d="M100.56,47.39a4.49,4.49,0,0,0-2.36,1.26c.87,1,1.79,7.66,2.09,9.9a6.6,6.6,0,0,0-.87,0c-6.83,1.17-7.49,10.68-7.49,10.68,1.76-.76,4.36-3.89,4.36-3.89a52.4,52.4,0,0,0-.15,5.79c1.12-.81,3-4.67,3-4.67-.16,1.37,1.68,5.08,1.68,5.08a18.37,18.37,0,0,0,1.37-4.08c.89,2.27,4.17,4.11,4.17,4.11.75-9.56-2.84-12.08-5.14-12.75,1.85-5.53-.23-11.3-.23-11.3A1.33,1.33,0,0,0,100.56,47.39Z"/><path class="cls-2" d="M38.26,72.62s-4.38-14.1-3.4-22.94c0,0,1.3-1.38,2.48-1,0,0-.52,16.33,1.83,22.34Z"/><path class="cls-2" d="M37.67,69.24s-.55-10.48,5.8-16.73a16.4,16.4,0,0,0,3.88-5A24.37,24.37,0,0,1,37.67,69.24Z"/><g class="cls-17"><path class="cls-2" d="M37.73,69.12h-.06a.23.23,0,0,1-.17-.28C38.5,64.75,44,56,44.25,55.59a.24.24,0,0,1,.33-.07.23.23,0,0,1,.07.32c-.06.09-5.71,9.09-6.69,13.1A.24.24,0,0,1,37.73,69.12Z"/></g><path class="cls-4" d="M39.23,97.92s-17.49-.73-17.4-23.5c0,0,.55-10.65,7.47-10.75a10.41,10.41,0,0,1,8.83,6.93s6.47-11.57,16.49-7c0,0,8.11,5,3.1,21.77C57.72,85.35,51.74,98.46,39.23,97.92Z"/><g class="cls-18"><path class="cls-19" d="M22.83,89.62c-.1-.12-.58-.24-.46-.14a5.38,5.38,0,0,0,1.11.65,6.32,6.32,0,0,0,1.29.28,22.52,22.52,0,0,0,4.71.37,29.09,29.09,0,0,0,13.57-5.17c5.34-3.56,8.28-9.5,11.18-15a27.47,27.47,0,0,1,3-5.27c2-2.27,5.42-.54,6.74,1.48,1.1,1.69,1.24,4,1.38,5.91a25.88,25.88,0,0,1-.55,8.86c-.32,1.13-1,2.14-1.38,3.23-1.14,2.89-2,6-3.7,8.59a25.75,25.75,0,0,1-5.35,5.54c-4.24,3.62-7.61,5.39-13.3,5.63-.77,0-1.54,0-2.31,0a8.31,8.31,0,0,1-1.93,0,26.13,26.13,0,0,1-3.51-1C29.38,102,27.74,99,25.6,95.67A23.55,23.55,0,0,1,24,93.27a6.27,6.27,0,0,1-.46-1.57c0-.31.11-.63,0-.92A3.33,3.33,0,0,0,22.83,89.62Z"/></g><path class="cls-12" d="M25.86,69.55A1.29,1.29,0,0,1,27,68.15,1.43,1.43,0,0,1,27,71,1.29,1.29,0,0,1,25.86,69.55Z"/><path class="cls-12" d="M25.05,73.61a.86.86,0,1,1,.85,1A.94.94,0,0,1,25.05,73.61Z"/><path class="cls-2" d="M29.55,97.49a26.73,26.73,0,0,1-4.8-.71,6.51,6.51,0,0,1-3-1.16c-1-.78-1.54-2-2.4-2.9-.19-.2-.35-.47-.62-.56a1.09,1.09,0,0,0-.83.09.51.51,0,0,0-.17.5,7.07,7.07,0,0,0,1,1.49c.17.19.6.76.6.76a13.66,13.66,0,0,0-1.24-.6c-.4-.13-2.36-1.09-2.7-.14S17,95.88,17.47,96a7.22,7.22,0,0,1,1,.3,32.61,32.61,0,0,0-3.76,1.48c-1.14.62-1,1.19.06,1.48s2.84-.18,4.17-.33a73.09,73.09,0,0,1,8.88-.21c2.65,0,2.7.4,3.79-.17.18-.1-.12-.74-.44-.83A7.2,7.2,0,0,0,29.55,97.49Z"/><path class="cls-2" d="M32.29,99.43c-.89-.06-1.79-.05-2.68-.1s-4.9.09-5.92.23a23.7,23.7,0,0,0-4.07.91,29.69,29.69,0,0,0-3.62,1c-.21.1-1.63.64-1.28,1s2.64-.45,3-.57l.77-.26c-1.1.48-2.67,2.09-2.64,2.75s.65.38.91.28a7.57,7.57,0,0,0,1.79-1.58,10.34,10.34,0,0,0-.85,2.79c-.08.87.29,1.22,1,.56s1.23-2.51,2-3.35c1.26-1.37,3.09-1.56,4.83-1.87l1.75-.3c1.66-.25,3.36-.18,5-.53.31-.06.3-.62.27-.8S32.4,99.44,32.29,99.43Z"/><path class="cls-5" d="M30.33,99.56s-1.25-7.66,9.61-5.86l37.54,6.84s5.94.58,5.27,2.14c0,0,1.15,1.19-14,2.21,0,0-25.51,1.53-29.2,1.5C39.53,106.39,30.23,107.87,30.33,99.56Z"/><g class="cls-20"><path class="cls-21" d="M33.52,108.55c-.65-.12-1.43,0-1.94-.37A7.49,7.49,0,0,1,29.25,105a1.58,1.58,0,0,1,.66-1.56,4.79,4.79,0,0,1,2-.51,7,7,0,0,1,1.65-.17c3.07,0,6.15.28,9.21.2,2.81-.06,5.59-.45,8.39-.61,3.2-.17,6.36,0,9.55,0,5.09,0,10.18-.09,15.25.4,2.85.27,5.72.52,8.54.94a3.17,3.17,0,0,1,2.32,1.17c.4.61-.73,1.5-1,1.62a7.38,7.38,0,0,1-1.86.48c-2.25.4-4.61.31-6.88.53-2,.19-4.1.43-6.15.64a190.58,190.58,0,0,1-19.23,1.5c-6.61,0-13.2-.35-19.81,0"/><path class="cls-22" d="M46,103.8a.49.49,0,0,1-.41-.22,5.16,5.16,0,0,1-.5-3.56.48.48,0,0,1,1,.11,4.17,4.17,0,0,0,.35,2.93.48.48,0,0,1-.14.66A.5.5,0,0,1,46,103.8Z"/><path class="cls-22" d="M48.1,103.65a.5.5,0,0,1-.38-.19,1.92,1.92,0,0,1-.32-1.22c0-.11,0-.23,0-.34a3,3,0,0,1,.08-1l.06-.3a.48.48,0,0,1,.95.14c0,.12,0,.23-.07.35a2.65,2.65,0,0,0-.07.66,2.9,2.9,0,0,1,0,.43,1.18,1.18,0,0,0,.12.65.49.49,0,0,1-.08.67A.5.5,0,0,1,48.1,103.65Z"/><path class="cls-22" d="M52.13,100.56a.47.47,0,0,1-.27-.08.71.71,0,0,1-.32-.42l-.07-.47a7.79,7.79,0,0,1-.14-1.88,8.65,8.65,0,0,1,.94-3.1.48.48,0,0,1,.87.42,7.53,7.53,0,0,0-.85,2.76,6.72,6.72,0,0,0,.13,1.65l0,.3a.48.48,0,0,1,0,.64A.49.49,0,0,1,52.13,100.56Z"/><path class="cls-22" d="M55.84,101.21a.47.47,0,0,1-.47-.41c0-.1,0-.2-.07-.3a2.83,2.83,0,0,1-.1-.8,16.62,16.62,0,0,1,.48-3.31,2,2,0,0,1,.56-.83l.23-.24a.48.48,0,0,1,.67-.09.49.49,0,0,1,.09.68c-.09.11-.2.22-.31.33a1.48,1.48,0,0,0-.32.41,15.84,15.84,0,0,0-.44,3.12,1.68,1.68,0,0,0,.08.51,2.66,2.66,0,0,1,.07.37.47.47,0,0,1-.39.55Z"/><path class="cls-22" d="M59.7,100.39h-.06a.49.49,0,0,1-.42-.54,14.42,14.42,0,0,1,.64-2.55l.24-.78a.49.49,0,0,1,.6-.33.48.48,0,0,1,.32.6c-.08.26-.16.53-.25.8a13.13,13.13,0,0,0-.59,2.38A.49.49,0,0,1,59.7,100.39Z"/><path class="cls-22" d="M69.22,104.62a.48.48,0,0,1-.47-.37,8.83,8.83,0,0,1-.09-2.5.46.46,0,0,1,.51-.45.49.49,0,0,1,.45.51,7.84,7.84,0,0,0,.07,2.22.49.49,0,0,1-.36.58Z"/></g></g></g></g></svg>