<svg xmlns="http://www.w3.org/2000/svg" xmlns:xlink="http://www.w3.org/1999/xlink" viewBox="0 0 132.76 142.18"><defs><style>.cls-1{fill:none;}.cls-2{fill:#8dd3ba;}.cls-3{fill:#fff;}.cls-4{fill:#ffd369;}.cls-5{fill:#e26241;}.cls-6{clip-path:url(#clip-path);}.cls-7{fill:#ffaa9b;}.cls-8{clip-path:url(#clip-path-2);}.cls-9{fill:#940a37;}.cls-10{fill:#ffbebb;}.cls-11{clip-path:url(#clip-path-3);}.cls-12{fill:#5b0909;}.cls-13{clip-path:url(#clip-path-4);}.cls-14{opacity:0.6;}.cls-15{clip-path:url(#clip-path-5);}.cls-16{clip-path:url(#clip-path-6);}</style><clipPath id="clip-path" transform="translate(1.89)"><path class="cls-1" d="M0,65.44a65.44,65.44,0,1,1,65.44,65.43A65.44,65.44,0,0,1,0,65.44Z"/></clipPath><clipPath id="clip-path-2" transform="translate(1.89)"><path class="cls-2" d="M59.11,109.86l4-10.18s.73-4.12,7.46-7.1c0,0,11.35-5,15.19-6.51,0,0,5.58,6.37,11.28,8.86,0,0,12.41-9.52,13.91-11.59,0,0,8.73,6,16.44,6,0,0-1.63,33.28-39.92,48C87.48,137.39,69.83,115.13,59.11,109.86Z"/></clipPath><clipPath id="clip-path-3" transform="translate(1.89)"><path class="cls-3" d="M79,56.35s.13-2.5,4.85-1.75c0,0,3.47.53,3.32,3,0,0-.15,1.9-4.47,1.36C82.7,59,78.82,58.09,79,56.35Z"/></clipPath><clipPath id="clip-path-4" transform="translate(1.89)"><path class="cls-3" d="M94,56.58s-.51-2.44,4.24-2.92c0,0,3.49-.36,4,2.08,0,0,.34,1.88-4,2.46C98.24,58.2,94.26,58.32,94,56.58Z"/></clipPath><clipPath id="clip-path-5" transform="translate(1.89)"><path class="cls-3" d="M22.6,75.66s0-2,3.76-.85c0,0,3.89,1.43,3,4,0,0-.42,1.24-3.39.17C26,79,22.37,77.92,22.6,75.66Z"/></clipPath><clipPath id="clip-path-6" transform="translate(1.89)"><path class="cls-3" d="M37.42,78.16s-.64-1.93,3.27-2c0,0,4.15.08,4.14,2.8,0,0,0,1.31-3.15,1.28C41.68,80.21,37.94,80.38,37.42,78.16Z"/></clipPath></defs><g id="Layer_2" data-name="Layer 2"><g id="OBJECTS"><path class="cls-4" d="M0,65.44a65.44,65.44,0,1,1,65.44,65.43A65.44,65.44,0,0,1,0,65.44Z" transform="translate(1.89)"/><path class="cls-5" d="M59.29,8.31a12.21,12.21,0,1,0,12.2,12.21A12.22,12.22,0,0,0,59.29,8.31Zm0,1.8a10.29,10.29,0,0,1,6.88,2.66L50.5,26.06a10.28,10.28,0,0,1-1.63-5.54A10.41,10.41,0,0,1,59.29,10.11Zm8.19,4.06a10.31,10.31,0,0,1,2.22,6.35,10.4,10.4,0,0,1-18,7.07Z" transform="translate(1.89)"/><g class="cls-6"><path class="cls-7" d="M85.3,79s1.91,6.7-2,12.13l13,9.71L114.76,86s-7.15-1.59-7-17C107.77,69,100.29,81.11,85.3,79Z" transform="translate(1.89)"/><path class="cls-2" d="M59.11,109.86l4-10.18s.73-4.12,7.46-7.1c0,0,11.35-5,15.19-6.51,0,0,5.58,6.37,11.28,8.86,0,0,12.41-9.52,13.91-11.59,0,0,8.73,6,16.44,6,0,0-1.63,33.28-39.92,48C87.48,137.39,69.83,115.13,59.11,109.86Z" transform="translate(1.89)"/><g class="cls-8"><polygon class="cls-9" points="82.17 87.44 99.2 102.53 119.23 85.18 114.04 81.14 86.62 83.93 82.17 87.44"/></g><path class="cls-10" d="M74.8,59.13a2.94,2.94,0,0,0-2.61-1.38S69.86,59,71.6,63.59c0,0,1.74,4.12,4.78,3.35,0,0,3.7,16.13,15.69,16.72,0,0,12.66-.22,17.8-18,0,0,5.13,0,5.43-5.21,0,0,.4-3.86-1.84-3.8,0,0-2.89,0-3.65,3.49,0,0,.16-27.38-18.78-26.42C91,33.7,71.42,36.33,74.8,59.13Z" transform="translate(1.89)"/><path class="cls-3" d="M79,56.35s.13-2.5,4.85-1.75c0,0,3.47.53,3.32,3,0,0-.15,1.9-4.47,1.36C82.7,59,78.82,58.09,79,56.35Z" transform="translate(1.89)"/><g class="cls-11"><path class="cls-12" d="M77.6,56.77a2.68,2.68,0,1,1,2.68,2.68A2.67,2.67,0,0,1,77.6,56.77Z" transform="translate(1.89)"/></g><path class="cls-3" d="M94,56.58s-.51-2.44,4.24-2.92c0,0,3.49-.36,4,2.08,0,0,.34,1.88-4,2.46C98.24,58.2,94.26,58.32,94,56.58Z" transform="translate(1.89)"/><g class="cls-13"><path class="cls-12" d="M92.75,57.35A2.68,2.68,0,1,1,96,59.26,2.68,2.68,0,0,1,92.75,57.35Z" transform="translate(1.89)"/></g><path class="cls-9" d="M78.69,51.36c0-.55,1.4-1,3.14-1s3.14.45,3.14,1-1.41,1-3.14,1S78.69,51.92,78.69,51.36Z" transform="translate(1.89)"/><path class="cls-9" d="M96,51.13c0-.55,1.48-.89,3.21-.76s3.1.68,3.06,1.23-1.48.89-3.21.76S96,51.68,96,51.13Z" transform="translate(1.89)"/><path class="cls-7" d="M110.87,60.73c.22-.95.94-1.59,1.61-1.43s1,1,.83,2-.94,1.59-1.61,1.44A1.58,1.58,0,0,1,110.87,60.73Z" transform="translate(1.89)"/><path class="cls-7" d="M72.7,63.11a1.57,1.57,0,0,1,.68-2c.66-.2,1.42.39,1.71,1.31s0,1.84-.68,2S73,64,72.7,63.11Z" transform="translate(1.89)"/><path class="cls-2" d="M99.56,65.7a.46.46,0,0,1-.44-.2.47.47,0,0,1,.12-.67l10.24-7.06a.47.47,0,0,1,.67.12.48.48,0,0,1-.12.67L99.78,65.62A.37.37,0,0,1,99.56,65.7Z" transform="translate(1.89)"/><path class="cls-2" d="M83.05,65.77a.71.71,0,0,1-.31-.13l-7.6-6.25a.62.62,0,0,1-.09-.85.6.6,0,0,1,.84-.09l7.59,6.24a.61.61,0,0,1,.09.85A.58.58,0,0,1,83.05,65.77Z" transform="translate(1.89)"/><path class="cls-3" d="M83,79.71s-3-7.66-.6-15.12c0,0,11.29-1.29,17.26-.4A38.31,38.31,0,0,1,102,79.11,27.35,27.35,0,0,1,83,79.71Z" transform="translate(1.89)"/><path class="cls-2" d="M85.58,68.66a.48.48,0,0,1,0-1l10.69-.41a.5.5,0,0,1,.5.47.48.48,0,0,1-.46.5l-10.69.4Z" transform="translate(1.89)"/><path class="cls-2" d="M85.58,73.09a.48.48,0,0,1-.48-.46.49.49,0,0,1,.46-.5l11.29-.48a.47.47,0,0,1,.51.46.48.48,0,0,1-.46.5l-11.3.48Z" transform="translate(1.89)"/><path class="cls-2" d="M91.39,78.61a37.15,37.15,0,0,1-5.32-.4.48.48,0,1,1,.15-.95c.08,0,7.21,1.13,10.82-.49a.49.49,0,0,1,.64.25.48.48,0,0,1-.24.63A15.67,15.67,0,0,1,91.39,78.61Z" transform="translate(1.89)"/><path class="cls-9" d="M85.72,37.6s6.66,5.7,8.58,10.18l.83-5.7a12.23,12.23,0,0,0,4.22,4.29,9.81,9.81,0,0,1,.45-3.26s7.55,6.65,8,12.79a44.14,44.14,0,0,1,0,6.39,7.29,7.29,0,0,0,2-2.56s1.07-3.11,4-2.88a24.89,24.89,0,0,0,0-6.27,3.9,3.9,0,0,1,1.43,2s1-3.75.44-5.7a5.06,5.06,0,0,1,1.09,1.85s-.35-6.93-3.61-11.22A8.35,8.35,0,0,0,116.48,36s-2.72-.78-3.76-2.07c0,0-5.85-6.16-8.81-6.36a3.3,3.3,0,0,1,2-.71s-4.78-1.69-6.68-1.27c0,0,1.71-2.58,2.64-3,0,0-8.27,1.25-12.08,4.22a12.11,12.11,0,0,0-7.7-3.24A11.25,11.25,0,0,1,85,26.48a13.66,13.66,0,0,0-10.54,6.81s-3.38,6.53-5.31,8.43c0,0,2.25-.17,3.09-1,0,0-1.88,6-1.33,9.27a13.73,13.73,0,0,0,1.27-1.27s-.36,6.32,1.3,9.15c0,0,1.13.65,2.36,3.56,0,0-1.12-7.45,1-11.43a15.11,15.11,0,0,0,3-5.35,11,11,0,0,1-.22,4.89S86.13,43.26,85.72,37.6Z" transform="translate(1.89)"/><g class="cls-14"><path class="cls-7" d="M94,31.34a.48.48,0,0,1-.12-.95c.23-.06,5.82-1.56,10.62-.2a.48.48,0,0,1-.27.93c-4.54-1.29-10,.18-10.1.2Z" transform="translate(1.89)"/></g><g class="cls-14"><path class="cls-7" d="M112.24,43.55a.48.48,0,0,1-.44-.29c-2.63-6.17-9.35-9-9.42-9.08a.49.49,0,0,1-.26-.63.48.48,0,0,1,.63-.25c.29.12,7.15,3.05,9.93,9.58a.48.48,0,0,1-.25.63A.43.43,0,0,1,112.24,43.55Z" transform="translate(1.89)"/></g><g class="cls-14"><path class="cls-7" d="M103,42.4a.5.5,0,0,1-.41-.23,15.09,15.09,0,0,0-8.41-6.57.48.48,0,0,1-.36-.58.48.48,0,0,1,.58-.35,15.72,15.72,0,0,1,9,7,.49.49,0,0,1-.16.67A.52.52,0,0,1,103,42.4Z" transform="translate(1.89)"/></g><g class="cls-14"><path class="cls-7" d="M78,32.71a.48.48,0,0,1-.36-.16.47.47,0,0,1,0-.67c4.44-4,10.35-2.23,10.6-2.16a.49.49,0,0,1,.32.6.48.48,0,0,1-.6.32c-.06,0-5.66-1.65-9.68,2A.49.49,0,0,1,78,32.71Z" transform="translate(1.89)"/></g><g class="cls-14"><path class="cls-7" d="M74.38,46.11h-.11a.48.48,0,0,1-.36-.58A16.59,16.59,0,0,1,83.25,34.1a.48.48,0,0,1,.35.9,15.9,15.9,0,0,0-8.76,10.74A.48.48,0,0,1,74.38,46.11Z" transform="translate(1.89)"/></g><g class="cls-14"><path class="cls-7" d="M110.62,55.53a.48.48,0,0,1-.48-.48c0-4.07-2-10.38-2-10.45a.48.48,0,1,1,.91-.29c.09.26,2.08,6.52,2.08,10.74A.49.49,0,0,1,110.62,55.53Z" transform="translate(1.89)"/></g><path class="cls-7" d="M54.88,89.9s-2.41,12.67,4.4,15.78L33.15,117.32l-5.64-16.78Z" transform="translate(1.89)"/><path class="cls-5" d="M32,107.22s1.13,5,8.42,4.75c0,0,9.92-1.91,17.1-6.92,0,0,14.12,5.45,26.82,20.58,0,0,5.18,8.36,6,13.51,0,0-48.28,14.78-87.24-20.84l-5-9.32s15.46-11.53,32-7.41Z" transform="translate(1.89)"/><path class="cls-10" d="M18.07,71.66s.72,34.12,13.59,35.29c0,0,11.73,2.44,23.83-16.19,0,0,7-1.23,7-6.91,0,0-.09-5-3.33-4.92a5,5,0,0,0-3.65,2.72s2.36-27.78-20-28.31C35.49,53.34,17.62,52.45,18.07,71.66Z" transform="translate(1.89)"/><path class="cls-3" d="M22.6,75.66s0-2,3.76-.85c0,0,3.89,1.43,3,4,0,0-.42,1.24-3.39.17C26,79,22.37,77.92,22.6,75.66Z" transform="translate(1.89)"/><g class="cls-15"><path class="cls-12" d="M25.89,77a2.27,2.27,0,1,1,2.27,2.27A2.27,2.27,0,0,1,25.89,77Z" transform="translate(1.89)"/></g><path class="cls-3" d="M37.42,78.16s-.64-1.93,3.27-2c0,0,4.15.08,4.14,2.8,0,0,0,1.31-3.15,1.28C41.68,80.21,37.94,80.38,37.42,78.16Z" transform="translate(1.89)"/><g class="cls-16"><path class="cls-12" d="M41,78.38a2.27,2.27,0,1,1,2.88,1.4A2.27,2.27,0,0,1,41,78.38Z" transform="translate(1.89)"/></g><path class="cls-12" d="M22.43,71.25c0-.5.78-.9,1.74-.9s1.73.4,1.73.9-.77.9-1.73.9S22.43,71.75,22.43,71.25Z" transform="translate(1.89)"/><path class="cls-12" d="M43.16,73.25c.13-.48,1-.67,1.91-.41s1.57.84,1.44,1.32-1,.67-1.91.42S43,73.73,43.16,73.25Z" transform="translate(1.89)"/><path class="cls-7" d="M57.06,84.11c.4-1.2,1.4-2,2.24-1.66s1.2,1.49.81,2.7-1.39,1.95-2.23,1.66S56.67,85.32,57.06,84.11Z" transform="translate(1.89)"/><path class="cls-2" d="M42.07,89.39a.49.49,0,0,1-.27-.9l13.52-8.08a.48.48,0,1,1,.49.83L42.3,89.32A.62.62,0,0,1,42.07,89.39Z" transform="translate(1.89)"/><path class="cls-2" d="M24.86,87.41a.48.48,0,0,1-.38-.22L17.92,76.93a.57.57,0,0,1,0-.76c.21-.22.29.1.47.36l6.83,9.88a.71.71,0,0,1-.06.85A.46.46,0,0,1,24.86,87.41Z" transform="translate(1.89)"/><path class="cls-3" d="M24,101.45a39.88,39.88,0,0,1,.21-15.3s10.22-.86,18.48,1.75c0,0,1.69,9.92,1,15.29C43.63,103.19,33.36,107.31,24,101.45Z" transform="translate(1.89)"/><path class="cls-2" d="M37.81,91.77a.57.57,0,0,1-.18,0c-1.2-.47-7.5-.88-9.83-1a.47.47,0,0,1-.45-.5.48.48,0,0,1,.51-.46c.87,0,8.56.47,10.12,1.07a.48.48,0,0,1,.27.63A.46.46,0,0,1,37.81,91.77Z" transform="translate(1.89)"/><path class="cls-2" d="M37.61,95.68h-.06l-10-1.16a.47.47,0,0,1-.42-.53.49.49,0,0,1,.53-.43l10,1.16a.48.48,0,0,1,.42.53A.48.48,0,0,1,37.61,95.68Z" transform="translate(1.89)"/><path class="cls-2" d="M38.16,101h-.07L27.48,99.44a.49.49,0,1,1,.14-1L38.22,100a.48.48,0,0,1-.06.95Z" transform="translate(1.89)"/><path class="cls-12" d="M18.59,79.27s-1.08-15,6.83-21.26c0,0,4.47,15.45,19,13.25,0,0,11.78,1.4,9.63,14.1l1.67-3.82S58,78.2,60,79.11c0,0,2.58-6.35,3.12-10.49A15.76,15.76,0,0,1,64,72.55s6.56-19.38-5.49-27.94c0,0-11.62-7.79-23.32-4.19a15.39,15.39,0,0,1,2.5-3.92s-6.36,3.66-8,6.12c0,0-12.07,5.07-13,18C16.68,60.64,15.65,72.73,18.59,79.27Z" transform="translate(1.89)"/><path class="cls-9" d="M40.2,69.89l-.16,0c-4.7-1.67-8.54-7.59-8.7-7.84a.48.48,0,0,1,.15-.66.47.47,0,0,1,.66.14c0,.06,3.83,5.9,8.22,7.45a.48.48,0,0,1,.29.61A.48.48,0,0,1,40.2,69.89Z" transform="translate(1.89)"/><path class="cls-9" d="M45.82,69.75a.45.45,0,0,1-.16,0c-5.81-2.08-8.27-4.51-8.37-4.61a.48.48,0,0,1,.68-.68s2.43,2.38,8,4.38a.49.49,0,0,1,.3.62A.51.51,0,0,1,45.82,69.75Z" transform="translate(1.89)"/><path class="cls-9" d="M58.22,67.42a.49.49,0,0,1-.48-.44C56.58,53.5,43,48.57,42.85,48.52a.48.48,0,0,1-.3-.61.48.48,0,0,1,.61-.29c.15,0,14.32,5.17,15.54,19.27a.47.47,0,0,1-.43.52Z" transform="translate(1.89)"/><path class="cls-9" d="M61.65,61.6a.48.48,0,0,1-.48-.44c-.7-9.1-9.58-14.53-9.67-14.58a.48.48,0,1,1,.49-.82c.39.23,9.4,5.72,10.14,15.33a.48.48,0,0,1-.45.51Z" transform="translate(1.89)"/><path class="cls-7" d="M57.23,118.46s-2.13,4.16-3,2.09c-1.11-2.78,1.38-8.23,7.4-15.14,0,0,4.92-3.09,9.45-1.2,0,0,8.74,4.38,9.92,9.45a17,17,0,0,1,.35,8.4L78,118.65s-3,1.55-6.08,7.74c-.5,1-1.39,4.16-3.14,4.06,0,0-4.47.22,3.5-14.2,0,0-3.54,2.29-5.62,8.73,0,0-1.48,6-3.87,5.34,0,0-3-1.39,1.52-11.75,0,0,2.06-3.93,4.27-5.7,0,0-4.13,2-7.57,11,0,0-1.21,4-3,3.68,0,0-2-.28-.34-5.81,0,0,2-7.48,6.4-11.49C64.1,110.22,62.09,110.58,57.23,118.46Z" transform="translate(1.89)"/></g></g></g></svg>