<svg xmlns="http://www.w3.org/2000/svg" xmlns:xlink="http://www.w3.org/1999/xlink" viewBox="0 0 130.87 143.44"><defs><style>.cls-1{fill:none;}.cls-10,.cls-2{fill:#ffaa9b;}.cls-3{isolation:isolate;}.cls-4{fill:#8dd3ba;}.cls-5{clip-path:url(#clip-path);}.cls-6{fill:#ffbebb;}.cls-7,.cls-8{fill:#fff;}.cls-7{opacity:0.6;}.cls-9{clip-path:url(#clip-path-2);}.cls-10{mix-blend-mode:multiply;opacity:0.3;}</style><clipPath id="clip-path"><path class="cls-1" d="M0,65.43a65.44,65.44,0,1,1,65.43,65.44A65.44,65.44,0,0,1,0,65.43Z"/></clipPath><clipPath id="clip-path-2"><path class="cls-2" d="M24,119.34s3.34-26,3.92-34.94c0,0,1.39-14.53,6.51-26.91,0,0,11-25.22,12.77-29.23,0,0,2.86-6.57,4.86-3.33,0,0,2.69,4.6-4.47,21.71,0,0-4.25,12.28-4.58,14,0,0,8.2-19.44,10.11-23.53,0,0,7.62-16.56,9.12-17.75,0,0,2.73-1.91,3.15,4.72,0,0-.15,5.26-5.89,16.79,0,0-5.77,16.86-5.95,19.71,0,0,8.4-20.22,10.17-23.38,0,0,8-16.63,8.68-18.11,0,0,1-2,2.53-.07,0,0,3.19,3.33-3.22,16.46,0,0-6,16.76-6.36,20.88L74.25,39.3l8.66-11.81S84.75,24.34,86,25.9c0,0,3,3.5-4.39,14.39a59.51,59.51,0,0,0-3.23,8.57,81.86,81.86,0,0,1-3.11,10.2A22.34,22.34,0,0,0,74,67.67s-.84,14.18-4.13,22.44c0,0,9.79-9.34,12.63-13.51,0,0,9.1-11.75,15.09-13a2.15,2.15,0,0,1,2,.74s.74,2-6.93,11.15c0,0-6.66,12.06-11.48,23.34a56,56,0,0,1-16.31,19.29s-2.06,10.7-.18,15.32C64.73,133.39,37,135.19,24,119.34Z"/></clipPath></defs><g class="cls-3"><g id="Layer_2" data-name="Layer 2"><g id="OBJECTS"><path class="cls-4" d="M0,65.43a65.44,65.44,0,1,1,65.43,65.44A65.44,65.44,0,0,1,0,65.43Z"/><g class="cls-5"><path class="cls-6" d="M90.66,131.6S58.05,102,33.11,56.83c0,0-7.89-14.1-9.14-18.79,0,0,1.22-3.89,7.75,3.46,0,0,15.39,19.69,19.51,22.39,0,0-12.56-23.73-15.63-27.89,0,0-5.05-7.4-5.16-8.17s0-2.18,3-1.18c0,0,7.46,3.1,13.91,14.25,0,0,8.23,11.13,10.94,13.74,0,0-14.05-25.75-15.23-27.89,0,0-3.53-6.53-4.38-7.48,0,0-1.08-2.57,2.33-2.15,0,0,5.76.18,12.77,14.88,0,0,9,13.12,12.48,16,0,0-12.62-26.68-15-30.12,0,0-2.26-2.86-.49-3.06,0,0,5.94-3.1,14.68,15,0,0,9.86,17.64,13.42,22.94,0,0,5.42,6.94,8.37,9.33,0,0-5.08-24.79,4.8-33.85,0,0,2.78-2,1.92,3.76,0,0,.67,16.6,6.08,26.53a44.7,44.7,0,0,1,3.56,25.66S114,101,122.08,104.59C122.08,104.59,109.55,124.06,90.66,131.6Z"/><path class="cls-7" d="M105.16,38a6.55,6.55,0,0,0-.38,13.09s0,.1,0,.16a4.91,4.91,0,1,0,6.59-4.6,6.49,6.49,0,0,0-6.2-8.65Z"/><path class="cls-8" d="M109.52,67.57a4,4,0,1,1,4,4A4,4,0,0,1,109.52,67.57Z"/><path class="cls-8" d="M76.22,18.29a3.86,3.86,0,1,1,3.85,3.85A3.85,3.85,0,0,1,76.22,18.29Z"/><path class="cls-8" d="M77.91,55.65A13.69,13.69,0,1,1,91.59,69.34,13.67,13.67,0,0,1,77.91,55.65Z"/><path class="cls-8" d="M88.9,110a7.68,7.68,0,1,1,7.68,7.68A7.67,7.67,0,0,1,88.9,110Z"/><path class="cls-7" d="M92.56,97.05a5.28,5.28,0,1,1,5.27,5.28A5.27,5.27,0,0,1,92.56,97.05Z"/><path class="cls-2" d="M24,119.34s3.34-26,3.92-34.94c0,0,1.39-14.53,6.51-26.91,0,0,11-25.22,12.77-29.23,0,0,2.86-6.57,4.86-3.33,0,0,2.69,4.6-4.47,21.71,0,0-4.25,12.28-4.58,14,0,0,8.2-19.44,10.11-23.53,0,0,7.62-16.56,9.12-17.75,0,0,2.73-1.91,3.15,4.72,0,0-.15,5.26-5.89,16.79,0,0-5.77,16.86-5.95,19.71,0,0,8.4-20.22,10.17-23.38,0,0,8-16.63,8.68-18.11,0,0,1-2,2.53-.07,0,0,3.19,3.33-3.22,16.46,0,0-6,16.76-6.36,20.88L74.25,39.3l8.66-11.81S84.75,24.34,86,25.9c0,0,3,3.5-4.39,14.39a59.51,59.51,0,0,0-3.23,8.57,81.86,81.86,0,0,1-3.11,10.2A22.34,22.34,0,0,0,74,67.67s-.84,14.18-4.13,22.44c0,0,9.79-9.34,12.63-13.51,0,0,9.1-11.75,15.09-13a2.15,2.15,0,0,1,2,.74s.74,2-6.93,11.15c0,0-6.66,12.06-11.48,23.34a56,56,0,0,1-16.31,19.29s-2.06,10.7-.18,15.32C64.73,133.39,37,135.19,24,119.34Z"/><g class="cls-9"><path class="cls-10" d="M43.67,137c-.07-.07-.23-.11-.2-.2a56.4,56.4,0,0,1,1.94-5.52,45.46,45.46,0,0,1,3.88-6.85c5.42-8.51,14.8-15.06,23.71-19.51,2.57-1.29,7.26-3.78,10.11-2.35s.77,3.62-.51,5.31-2.46,3.46-3.68,5.21-2.72,3.22-3.57,5.11a14.4,14.4,0,0,0-.62,2.25c-1.23,4.48-2.06,9.61-4.39,13.69-2.22,3.88-6.15,6.58-10.22,8.17a11.54,11.54,0,0,1-5.72,1.13,29.69,29.69,0,0,1-5.82-1.94c-1.94-.76-3.83-1.39-5.73-2.25"/></g><path class="cls-8" d="M57.8,82.49a5,5,0,0,0-5,5,4.86,4.86,0,0,0,.4,2,3.78,3.78,0,0,0,.2,7.53A3.43,3.43,0,0,0,56,95.73a5.09,5.09,0,1,0,5.76-5.18,5,5,0,0,0-4-8.06Zm-1,9.93.23,0c-.06.09-.14.16-.2.25A2.48,2.48,0,0,0,56.84,92.42Z"/><path class="cls-7" d="M52.51,75.89a3.18,3.18,0,1,1,3.18,3.18A3.17,3.17,0,0,1,52.51,75.89Z"/><path class="cls-8" d="M8.14,52.14A4.82,4.82,0,1,1,13,57,4.82,4.82,0,0,1,8.14,52.14Z"/><path class="cls-8" d="M31.83,42.91a12,12,0,0,0-11.95,12,11.79,11.79,0,0,0,1.91,6.43A14.73,14.73,0,1,0,41.32,62a11.89,11.89,0,0,0-9.49-19.13Z"/><path class="cls-8" d="M27.88,97.36A5.66,5.66,0,1,1,33.54,103,5.67,5.67,0,0,1,27.88,97.36Z"/><path class="cls-7" d="M9.17,70.16a8.28,8.28,0,1,1,8.28,8.28A8.28,8.28,0,0,1,9.17,70.16Z"/><circle class="cls-8" cx="36.14" cy="34.43" r="8.39"/><path class="cls-7" d="M29.66,23A6.37,6.37,0,1,1,36,29.39,6.37,6.37,0,0,1,29.66,23Z"/></g></g></g></g></svg>