<svg xmlns="http://www.w3.org/2000/svg" xmlns:xlink="http://www.w3.org/1999/xlink" viewBox="0 0 130.87 136.29"><defs><style>.cls-1{fill:none;}.cls-2,.cls-7{fill:#ffaa9b;}.cls-3{fill:#fff;}.cls-4{isolation:isolate;}.cls-5{clip-path:url(#clip-path);}.cls-6{clip-path:url(#clip-path-2);}.cls-7{mix-blend-mode:multiply;opacity:0.3;}.cls-8{fill:#e26241;}.cls-9{clip-path:url(#clip-path-3);}.cls-10{fill:#5b0909;}.cls-11{clip-path:url(#clip-path-4);}.cls-12{fill:#8dd3ba;}</style><clipPath id="clip-path"><path class="cls-1" d="M0,65.46a65.44,65.44,0,1,1,65.46,65.41A65.43,65.43,0,0,1,0,65.46Z"/></clipPath><clipPath id="clip-path-2"><path class="cls-2" d="M48.9,87.42s1.85,16.68-2.43,21.87a82.54,82.54,0,0,1-9.51,6s39.76,8.16,58.05-1.91c0,0-10.38-3.47-12-9.12,0,0-2.79-7.24-1.73-18.12C81.26,86.18,70.7,95.63,48.9,87.42Z"/></clipPath><clipPath id="clip-path-3"><path class="cls-3" d="M47.73,52.92c0-1.38,2.62-2.45,5.79-2.39s5.72,1.24,5.69,2.63-2.62,2.45-5.79,2.38S47.7,54.3,47.73,52.92Z"/></clipPath><clipPath id="clip-path-4"><path class="cls-3" d="M71.17,53.4C71.19,52,73.79,50.94,77,51s5.72,1.23,5.69,2.62S80,56.08,76.86,56,71.14,54.78,71.17,53.4Z"/></clipPath></defs><g class="cls-4"><g id="Layer_2" data-name="Layer 2"><g id="OBJECTS"><path class="cls-3" d="M0,65.46a65.44,65.44,0,1,1,65.46,65.41A65.43,65.43,0,0,1,0,65.46Z"/><g class="cls-5"><path class="cls-2" d="M48.9,87.42s1.85,16.68-2.43,21.87a82.54,82.54,0,0,1-9.51,6s39.76,8.16,58.05-1.91c0,0-10.38-3.47-12-9.12,0,0-2.79-7.24-1.73-18.12C81.26,86.18,70.7,95.63,48.9,87.42Z"/><g class="cls-6"><path class="cls-7" d="M43,89.74a15.68,15.68,0,0,0,1.64,1.43,36.08,36.08,0,0,0,4.55,3.09,33.17,33.17,0,0,0,11,3.69A44.32,44.32,0,0,0,73,98.44c4.75-.68,9.64-2.89,12.22-7.13a5.08,5.08,0,0,0-.7-6.38,12,12,0,0,0-1.39-1.17,8.64,8.64,0,0,0-2.53-1.24,20.74,20.74,0,0,0-6.33-1c-1.25-.08-2.51-.17-3.77-.19-2.8,0-5.6.18-8.4.42a21.81,21.81,0,0,0-4.73.89c-1.07.34-2.19.59-3.27.91a78.26,78.26,0,0,0-8.33,2.65c-.83.35-2.13.7-2.65,1.51A2.33,2.33,0,0,0,43,89.74Z"/></g><path class="cls-8" d="M43.57,111.05s21.18,8.94,44.16-.67c0,0,15.14,2.38,31.87,5.81,0,0,4.43-.75,8.48,9.43,0,0-70.29,18.67-116,6.63,0,0-1.63-10.17,9.23-13.7C21.28,118.55,38.77,113.31,43.57,111.05Z"/><path class="cls-2" d="M37.43,55.93a4.63,4.63,0,0,0-4.28-2.3s-4,1.55-2.77,8.22c0,0,1.05,5.22,8.08,5.36,0,0,1.75,27.76,26.14,26.42,0,0,21.89,2.75,25.27-26.35,0,0,7.57,1.49,8.42-7.15,0,0,.51-5.87-3.83-6.05,0,0-4.44,1-5.27,3.75,0,0,3.8-31.31-24.42-30.72C64.77,27.11,35.75,24.51,37.43,55.93Z"/><path class="cls-7" d="M33,60.86a2.6,2.6,0,0,1,1.86-3.13,2.82,2.82,0,0,1,.92,5.48A2.6,2.6,0,0,1,33,60.86Z"/><path class="cls-7" d="M91.39,61.37a2.38,2.38,0,1,1,2.78,2.35A2.6,2.6,0,0,1,91.39,61.37Z"/><path class="cls-3" d="M47.73,52.92c0-1.38,2.62-2.45,5.79-2.39s5.72,1.24,5.69,2.63-2.62,2.45-5.79,2.38S47.7,54.3,47.73,52.92Z"/><g class="cls-9"><path class="cls-10" d="M50.07,51.78a2.81,2.81,0,1,1,2.75,2.87A2.81,2.81,0,0,1,50.07,51.78Z"/></g><path class="cls-3" d="M71.17,53.4C71.19,52,73.79,50.94,77,51s5.72,1.23,5.69,2.62S80,56.08,76.86,56,71.14,54.78,71.17,53.4Z"/><g class="cls-11"><path class="cls-10" d="M73.51,52.26a2.81,2.81,0,1,1,2.75,2.86A2.81,2.81,0,0,1,73.51,52.26Z"/></g><path class="cls-10" d="M47.87,43.65c0-.84,2.13-1.48,4.73-1.42s4.69.77,4.67,1.61-2.13,1.47-4.73,1.42S47.85,44.48,47.87,43.65Z"/><path class="cls-10" d="M72.39,44.15c0-.84,2.14-1.48,4.73-1.43s4.69.77,4.68,1.61-2.14,1.48-4.74,1.42S72.37,45,72.39,44.15Z"/><path class="cls-12" d="M79.74,69.2a.53.53,0,0,1-.35-.12.54.54,0,0,1-.1-.75l9.17-11.87a.54.54,0,0,1,.85.66L80.14,69A.55.55,0,0,1,79.74,69.2Z"/><path class="cls-12" d="M50.44,69.69a.48.48,0,0,1-.35-.19L37.82,55.32a.55.55,0,0,1,0-.76.54.54,0,0,1,.76.06L50.9,68.81a.53.53,0,0,1-.06.75A.54.54,0,0,1,50.44,69.69Z"/><path class="cls-3" d="M49.55,87.51s-.43-11.85.21-18.28c0,0,.08-2.78,3.92-3.2,0,0,15.18-2.5,23.87.21a4.12,4.12,0,0,1,3,3.9l.23,15.19A7.13,7.13,0,0,1,77.13,91s-12.65,6.67-24.1.69A5.45,5.45,0,0,1,49.55,87.51Z"/><path class="cls-12" d="M58.81,72.32a.55.55,0,0,1-.53-.51.54.54,0,0,1,.51-.56c.07,0,7.26-.33,12.78,0a.54.54,0,0,1-.06,1.07c-5.46-.3-12.6,0-12.67,0Z"/><path class="cls-12" d="M58.61,77.17a.54.54,0,0,1,0-1.08L72,75.85a.56.56,0,0,1,.55.52.54.54,0,0,1-.53.55l-13.34.25Z"/><path class="cls-12" d="M58.33,83.9a.54.54,0,0,1-.52-.54.53.53,0,0,1,.53-.53c.12,0,11.49,0,14.18-.91a.52.52,0,0,1,.67.34.53.53,0,0,1-.33.68c-2.85,1-14,1-14.52,1Z"/><path class="cls-12" d="M77.54,84.86a.55.55,0,0,1-.53-.52l-.47-11.18a.52.52,0,0,1,.51-.55.5.5,0,0,1,.55.51l.48,11.18a.52.52,0,0,1-.51.55Z"/><path class="cls-12" d="M52.4,85.85h0a.53.53,0,0,1-.52-.55l.36-13a.53.53,0,0,1,.54-.51h0a.53.53,0,0,1,.52.55l-.36,13A.54.54,0,0,1,52.4,85.85Z"/><path class="cls-10" d="M41.73,66s1.06-24.49,1.76-28.54c0,0,19.86,3.5,29.95,1.5,0,0,7.42,1.9,12.1,2,0,0,1.43,18.66.37,23.89,0,0,2.53-5.15,3.31-7.11,0,0,2.27-3.85,5.38-3.73,0,0,7.38-24.81-5.73-35.46,0,0-16.27-13.53-32.51-7.35A9.91,9.91,0,0,1,59.9,6.93s-5.18,1.24-7.45,5.56c0,0-14.53,3.28-18.68,18.39,0,0-2.94,13.7.91,22.7C34.68,53.58,39.49,55.47,41.73,66Z"/><path class="cls-8" d="M66.79,37.59c-8.61-.17-20.57-8-21.08-8.34a.53.53,0,0,1-.15-.74.54.54,0,0,1,.74-.15c.12.08,12.22,8,20.52,8.16H67a.54.54,0,0,1,.52.54.52.52,0,0,1-.54.53Z"/><path class="cls-8" d="M72.56,37a.38.38,0,0,1-.17,0C66.25,34.7,54.1,25.22,53.59,24.81a.52.52,0,0,1-.09-.75.54.54,0,0,1,.75-.09c.12.1,12.53,9.78,18.51,12a.54.54,0,0,1-.2,1Z"/><path class="cls-8" d="M83,38.2a.54.54,0,0,1-.21-.05C75.7,35,66.5,23.72,66.11,23.24a.53.53,0,0,1,.08-.75.54.54,0,0,1,.75.07c.09.12,9.43,11.55,16.25,14.62a.53.53,0,0,1,.27.7A.54.54,0,0,1,83,38.2Z"/></g></g></g></g></svg>