<svg xmlns="http://www.w3.org/2000/svg" xmlns:xlink="http://www.w3.org/1999/xlink" viewBox="0 0 130.87 137.99"><defs><style>.cls-1,.cls-7{fill:#940a37;}.cls-10,.cls-14,.cls-2{fill:#ffaa9b;}.cls-3{fill:#fff;}.cls-4{fill:none;}.cls-5{isolation:isolate;}.cls-6{clip-path:url(#clip-path);}.cls-10,.cls-14,.cls-7{mix-blend-mode:multiply;}.cls-10,.cls-7{opacity:0.3;}.cls-8{fill:#e26241;}.cls-9{clip-path:url(#clip-path-2);}.cls-11{clip-path:url(#clip-path-3);}.cls-12{fill:#5b0909;}.cls-13{clip-path:url(#clip-path-4);}.cls-14{opacity:0.4;}.cls-15{fill:#8dd3ba;}.cls-16{clip-path:url(#clip-path-5);}.cls-17{fill:#ffd369;}.cls-18{fill:#ffbebb;}</style><clipPath id="clip-path"><path class="cls-1" d="M40.39,81.32s1.2-17.23,1.49-20.89c0,0,.63-40.72,31.53-43.13,0,0,30.34-2.5,34.34,26.71,0,0,2.87,32.21,4.46,38.6a53.49,53.49,0,0,1-36.29,8.14s-23.11,2.68-36-1.06C39.94,89.69,40.2,83.77,40.39,81.32Z"/></clipPath><clipPath id="clip-path-2"><path class="cls-2" d="M63.25,90.88s-.1,21.72-10.77,25.89c0,0,26.27,14.65,47.14-1.75,0,0-16.09-3.62-14.52-24.37C85.1,90.65,70,94.93,63.25,90.88Z"/></clipPath><clipPath id="clip-path-3"><path class="cls-3" d="M59,61s.45-2.48,5.25-1.34c0,0,4.9,1,3.83,3.78,0,0-.82,1.56-5.24.48C62.86,63.89,58.64,63,59,61Z"/></clipPath><clipPath id="clip-path-4"><path class="cls-3" d="M92,61.44s-.14-2.52-5-2c0,0-5,.41-4.26,3.27,0,0,.61,1.65,5.13,1.13C87.83,63.87,92.12,63.55,92,61.44Z"/></clipPath><clipPath id="clip-path-5"><path class="cls-4" d="M0,65.43a65.44,65.44,0,1,1,65.44,65.44A65.44,65.44,0,0,1,0,65.43Z"/></clipPath></defs><g class="cls-5"><g id="Layer_2" data-name="Layer 2"><g id="OBJECTS"><path class="cls-3" d="M0,65.43a65.44,65.44,0,1,1,65.44,65.44A65.44,65.44,0,0,1,0,65.43Z"/><path class="cls-1" d="M40.39,81.32s1.2-17.23,1.49-20.89c0,0,.63-40.72,31.53-43.13,0,0,30.34-2.5,34.34,26.71,0,0,2.87,32.21,4.46,38.6a53.49,53.49,0,0,1-36.29,8.14s-23.11,2.68-36-1.06C39.94,89.69,40.2,83.77,40.39,81.32Z"/><g class="cls-6"><path class="cls-7" d="M35.48,68.78c.05.13-.52-.06-.44.06a6.61,6.61,0,0,0,1.47,1.47,30.79,30.79,0,0,0,3.15,2.1,39.76,39.76,0,0,0,7.4,3.22,52,52,0,0,0,7.84,1.52,66.77,66.77,0,0,0,12.4.6c6.37-.26,12.69-1.84,18.85-3.32,4.7-1.13,9.35-2.47,14-3.62,2.28-.55,4.58-1,6.84-1.65a50.44,50.44,0,0,0,8.67-3.43c.85-.43,1.68-.92,2.51-1.4s1.44-1.29,2.32-1.23c1.36.08,2.12,2.69,2.36,3.6a35.46,35.46,0,0,1,1.24,10.6C123.57,86.45,112,90.2,105,93a244.63,244.63,0,0,1-24,8.18,40.32,40.32,0,0,1-4.37.76c-4.69.83-9.39,1.46-14.11,2.06a76,76,0,0,1-12.8.25,28.66,28.66,0,0,1-9.22-1.61c-3.06-1.2-4.39-3.64-5.82-6.41A38.69,38.69,0,0,1,32,90.58c-1.2-3.79-.85-7.74-.84-11.63,0-3.11.32-6.39,2.12-9C33.65,69.36,35,67.48,35.48,68.78Z"/></g><path class="cls-8" d="M99,86.66a.4.4,0,0,1-.38-.42l.45-11.84A.41.41,0,0,1,99.5,74a.42.42,0,0,1,.39.42l-.45,11.84a.41.41,0,0,1-.43.39Z"/><path class="cls-8" d="M102.72,84.28a.43.43,0,0,1-.39-.43l.33-8a.42.42,0,0,1,.43-.4h0a.42.42,0,0,1,.38.43l-.33,8a.41.41,0,0,1-.42.4Z"/><path class="cls-8" d="M107.39,83.51a.4.4,0,0,1-.38-.38l-.84-10.8a.43.43,0,0,1,.38-.45.42.42,0,0,1,.44.38l.84,10.81a.43.43,0,0,1-.38.44Z"/><path class="cls-8" d="M50.53,88.77a.41.41,0,0,1-.39-.4l-.18-10a.42.42,0,0,1,.83,0l.17,10a.4.4,0,0,1-.4.42Z"/><path class="cls-8" d="M46.94,87.6a.42.42,0,0,1-.38-.43l.31-7.5a.41.41,0,0,1,.43-.4.42.42,0,0,1,.39.43l-.31,7.5a.42.42,0,0,1-.43.4Z"/><path class="cls-2" d="M63.25,90.88s-.1,21.72-10.77,25.89c0,0,26.27,14.65,47.14-1.75,0,0-16.09-3.62-14.52-24.37C85.1,90.65,70,94.93,63.25,90.88Z"/><g class="cls-9"><path class="cls-10" d="M57.56,88.26c.1-.1.17-.31.31-.29a16.1,16.1,0,0,1,2,.53,29.53,29.53,0,0,0,7,1c2,0,4-.33,6-.34,1.35,0,2.7.12,4,0s2.44-.34,3.66-.49c1.81-.22,3.63-.32,5.45-.38a17.57,17.57,0,0,0,2-.08c.6-.08,1.86-.5,2.47-.15.93.54.61,2,.23,2.78a19.45,19.45,0,0,1-2.53,3.73c-1.79,2-4.52,3.26-7,4.27a28.74,28.74,0,0,1-13.58,2A18.2,18.2,0,0,1,63,100a11.28,11.28,0,0,1-4.82-3.83A11.56,11.56,0,0,1,57,92.26c-.09-.58-.2-1.16-.25-1.75a3.37,3.37,0,0,1,0-1.38C56.9,88.76,57.29,88.54,57.56,88.26Z"/></g><path class="cls-2" d="M49.21,59.41s-3.56.28-2.71,6.17c0,0,.76,5.61,5.12,6.21,0,0,4.9,25.94,23,25,0,0,18.57.53,22.32-23.81,0,0,6.82-1.6,7.37-8.18,0,0,1.15-4.94-2.51-4.94A4.63,4.63,0,0,0,98,62.55s2.22-34.77-19.82-32.41c0,0-24.67,0-25.75,20.59l-.33,10.55A4.36,4.36,0,0,0,49.21,59.41Z"/><path class="cls-3" d="M59,61s.45-2.48,5.25-1.34c0,0,4.9,1,3.83,3.78,0,0-.82,1.56-5.24.48C62.86,63.89,58.64,63,59,61Z"/><g class="cls-11"><path class="cls-12" d="M61.9,60.69A2.28,2.28,0,1,1,64,63.11,2.28,2.28,0,0,1,61.9,60.69Z"/></g><path class="cls-3" d="M92,61.44s-.14-2.52-5-2c0,0-5,.41-4.26,3.27,0,0,.61,1.65,5.13,1.13C87.83,63.87,92.12,63.55,92,61.44Z"/><g class="cls-13"><path class="cls-12" d="M89.18,60.81A2.28,2.28,0,1,0,86.76,63,2.28,2.28,0,0,0,89.18,60.81Z"/></g><path class="cls-1" d="M58.13,54.77s0,1.74,4.1,1.26c0,0,3.83-.28,3.77-1.62,0,0-.27-1.89-4.14-1.43C61.86,53,57.87,53.44,58.13,54.77Z"/><path class="cls-1" d="M83.93,53.66s-.49,1.67,3.64,2.28c0,0,3.77.72,4.05-.59,0,0,.23-1.9-3.63-2.45C88,52.9,84,52.31,83.93,53.66Z"/><path class="cls-12" d="M74.62,76.05a6.37,6.37,0,0,1-2.34-.62.41.41,0,0,1-.17-.55.42.42,0,0,1,.56-.18,4.92,4.92,0,0,0,4.28,0,.4.4,0,0,1,.55.16.41.41,0,0,1-.16.56A5,5,0,0,1,74.62,76.05Z"/><path class="cls-1" d="M74.67,82.44l5.93.11s-1.09,3.14-5.85,3.33c0,0-4.72.05-5.71-3.31Z"/><path class="cls-12" d="M69,82.71s1.17-2.3,6-2.29c0,0,4.93.27,5.58,2.21A60.25,60.25,0,0,1,69,82.71Z"/><path class="cls-14" d="M93.36,68.62c.14,1.41-1.87,2.76-4.5,3s-4.89-.65-5-2,1.87-2.76,4.5-3S93.21,67.22,93.36,68.62Z"/><path class="cls-14" d="M65.85,70.62c-.16,1.4-2.43,2.28-5.06,2s-4.62-1.71-4.45-3.11,2.43-2.28,5.06-2S66,69.22,65.85,70.62Z"/><path class="cls-14" d="M102.36,65.41c-.3,1.35-1.27,2.29-2.15,2.09S98.84,66,99.15,64.68s1.27-2.29,2.16-2.09S102.67,64.05,102.36,65.41Z"/><path class="cls-14" d="M52.31,65.37c.41,1.33,0,2.62-.82,2.9s-1.91-.59-2.32-1.91-.06-2.62.81-2.9S51.89,64,52.31,65.37Z"/><path class="cls-1" d="M54.3,66.76S50,60.59,51.1,46.31c0,0,2.95-19.69,22.38-20.28,0,0,17.3,0,21.64,10.44,0,0,9.19,18.64-.52,33.12,0,0,1.55-21.11-1.48-29.93,0,0-6.29,11.28-38.41,12.48A45.72,45.72,0,0,0,54.3,66.76Z"/><path class="cls-8" d="M62,48.83a.4.4,0,0,1-.31-.16.41.41,0,0,1,.08-.57C61.92,48,73.66,39,76.09,34.74a.4.4,0,0,1,.56-.15.41.41,0,0,1,.16.56c-2.52,4.38-14,13.23-14.51,13.6A.39.39,0,0,1,62,48.83Z"/><path class="cls-8" d="M70.84,47.28a.43.43,0,0,1-.3-.16.4.4,0,0,1,.07-.57c.09-.07,8.58-6.72,10.67-10.42a.42.42,0,0,1,.56-.16.41.41,0,0,1,.16.56c-2.17,3.85-10.53,10.39-10.88,10.66A.37.37,0,0,1,70.84,47.28Z"/><path class="cls-8" d="M78.55,45.62a.43.43,0,0,1-.31-.16.42.42,0,0,1,.08-.58c.06,0,5.77-4.43,7.5-7.37a.41.41,0,0,1,.56-.14.4.4,0,0,1,.15.56c-1.81,3.07-7.47,7.42-7.71,7.61A.45.45,0,0,1,78.55,45.62Z"/><path class="cls-15" d="M20.82,50.72a15.81,15.81,0,1,0,15.8,15.82A15.81,15.81,0,0,0,20.82,50.72Zm0,2.33a13.4,13.4,0,0,1,8.92,3.44L9.45,73.71a13.34,13.34,0,0,1-2.11-7.17A13.48,13.48,0,0,1,20.82,53.05Zm10.61,5.26a13.3,13.3,0,0,1,2.87,8.23A13.45,13.45,0,0,1,11,75.69Z"/><g class="cls-16"><path class="cls-17" d="M27.59,120.89A290.62,290.62,0,0,1,59,110.34s13.72,6.54,32.62.13c0,0,16.75,3,31.17,9.22,0,0-18.51,19.23-47.6,18.27C75.19,138,35.52,137.48,27.59,120.89Z"/><path class="cls-18" d="M20,118.48s-3.19-6.4,3.92-17.73l5.41-9.42s1-2.35,2-2c0,0,2.46,1.22-.34,6.73,0,0-1.17,2.41-.22,2.56a89.39,89.39,0,0,0,6.87-7.14s6.06-8.21,8.17-7.18c0,0,1.21,1.81-3.73,7,0,0-5,7-5.32,8.18a67,67,0,0,0,8.27-7.21s4.38-5.77,6.4-4.71c0,0,.69,2.43-4.26,7.69,0,0-6.35,6.81-6,8a39,39,0,0,0,7.29-6.34s5.48-5.93,7.26-5c0,0,1.28,1.34-4,7L45,106.26a73.1,73.1,0,0,1,8.84-5.34s3.36-1.31,3.66-.43c0,0,.92,1.15-5.06,4.75,0,0-9.1,7.33-10.67,10,0,0-6.38,10-11.36,9.46C30.41,124.74,22.85,125.34,20,118.48Z"/></g></g></g></g></svg>